<svg xmlns="http://www.w3.org/2000/svg" viewBox="0 0 32 32">
  <circle cx="16" cy="16" r="15" fill="#ff7aa2" />
  <g fill="#ffffff" transform="translate(16 16)">
    <path d="M-1,-12 L0,-10 L1,-12 C5,-12.5 5.5,-3 0,-1.5 C-5.5,-3 -5,-12.5 -1,-12 Z" />
    <path
      d="M-1,-12 L0,-10 L1,-12 C5,-12.5 5.5,-3 0,-1.5 C-5.5,-3 -5,-12.5 -1,-12 Z"
      transform="rotate(72)"
    />
    <path
      d="M-1,-12 L0,-10 L1,-12 C5,-12.5 5.5,-3 0,-1.5 C-5.5,-3 -5,-12.5 -1,-12 Z"
      transform="rotate(144)"
    />
    <path
      d="M-1,-12 L0,-10 L1,-12 C5,-12.5 5.5,-3 0,-1.5 C-5.5,-3 -5,-12.5 -1,-12 Z"
      transform="rotate(216)"
    />
    <path
      d="M-1,-12 L0,-10 L1,-12 C5,-12.5 5.5,-3 0,-1.5 C-5.5,-3 -5,-12.5 -1,-12 Z"
      transform="rotate(288)"
    />
  </g>
  <circle cx="16" cy="16" r="2" fill="#ffd954" />
</svg>
